<svg width="73" height="73" viewBox="0 0 73 73" fill="none" xmlns="http://www.w3.org/2000/svg">
<rect width="73" height="73" rx="10" fill="#173742"/>
<path d="M39.7552 49.6504L39.7552 53.3486C48.9008 53.3486 56.3423 45.9075 56.3423 36.7597L56.3423 34.9105L41.7371 34.9105C42.6362 28.6759 48.0146 23.869 54.4934 23.869L54.4934 20.1707C45.3478 20.1707 37.9063 27.6119 37.9063 36.7597L37.9063 38.6088L52.5115 38.6088C51.6124 44.8434 46.234 49.6504 39.7552 49.6504Z" fill="white"/>
<path d="M31.6052 34.9106L17 34.9106L17 36.7597C17 45.9063 24.4403 53.3486 33.5871 53.3486L33.5871 49.6504C27.1083 49.6504 21.7299 44.8435 20.8308 38.6088L35.436 38.6088L35.436 36.7597C35.436 27.6131 27.9957 20.1708 18.8489 20.1708L18.8489 23.869C25.3277 23.869 30.7061 28.6759 31.6052 34.9106Z" fill="white"/>
<path d="M36.3423 53L37.3423 53C37.8946 53 38.3423 52.5523 38.3423 52L38.3423 51C38.3423 50.4477 37.8946 50 37.3423 50L36.3423 50C35.79 50 35.3423 50.4477 35.3423 51L35.3423 52C35.3423 52.5523 35.79 53 36.3423 53Z" fill="white"/>
<path d="M30.3423 23L31.3423 23C31.8946 23 32.3423 22.5523 32.3423 22L32.3423 21C32.3423 20.4477 31.8946 20 31.3423 20L30.3423 20C29.79 20 29.3423 20.4477 29.3423 21L29.3423 22C29.3423 22.5523 29.79 23 30.3423 23Z" fill="white"/>
<path d="M36.1423 27L37.1423 27C37.6946 27 38.1423 26.5523 38.1423 26L38.1423 25C38.1423 24.4477 37.6946 24 37.1423 24L36.1423 24C35.59 24 35.1423 24.4477 35.1423 25L35.1423 26C35.1423 26.5523 35.59 27 36.1423 27Z" fill="white"/>
</svg>
